<?xml version="1.0" encoding="us-ascii" standalone="no"?><svg xmlns="http://www.w3.org/2000/svg" xmlns:xlink="http://www.w3.org/1999/xlink" contentStyleType="text/css" height="695px" preserveAspectRatio="none" style="width:1863px;height:695px;background:#FFFFFF;" version="1.1" viewBox="0 0 1863 695" width="1863px" zoomAndPan="magnify"><defs/><g><!--class ring_buf_dp--><g id="elem_ring_buf_dp"><rect codeLine="5" fill="#F1F1F1" height="244.0912" id="ring_buf_dp" rx="2.5" ry="2.5" style="stroke:#181818;stroke-width:0.5;" width="174" x="858.5" y="444.5"/><ellipse cx="900.95" cy="467.206" fill="#ADD1B2" rx="11" ry="11" style="stroke:#181818;stroke-width:1.0;"/><path d="M903.9188,472.8466 Q903.3406,473.1435 902.7,473.2841 Q902.0594,473.4404 901.3563,473.4404 Q898.8563,473.4404 897.5281,471.7998 Q896.2156,470.1435 896.2156,467.0185 Q896.2156,463.8935 897.5281,462.2373 Q898.8563,460.581 901.3563,460.581 Q902.0594,460.581 902.7,460.7373 Q903.3563,460.8935 903.9188,461.1904 L903.9188,463.9091 Q903.2938,463.331 902.7,463.0654 Q902.1063,462.7841 901.4813,462.7841 Q900.1375,462.7841 899.45,463.8623 Q898.7625,464.9248 898.7625,467.0185 Q898.7625,469.1123 899.45,470.1904 Q900.1375,471.2529 901.4813,471.2529 Q902.1063,471.2529 902.7,470.9873 Q903.2938,470.706 903.9188,470.1279 L903.9188,472.8466 Z " fill="#000000"/><text fill="#000000" font-family="sans-serif" font-size="12" font-style="italic" lengthAdjust="spacing" textLength="42" x="940.55" y="462.3281">&#171;struct&#187;</text><text fill="#000000" font-family="sans-serif" font-size="14" lengthAdjust="spacing" textLength="81" x="921.05" y="480.81">ring_buf_dp</text><line style="stroke:#181818;stroke-width:0.5;" x1="859.5" x2="1031.5" y1="489.912" y2="489.912"/><text fill="#000000" font-family="sans-serif" font-size="14" lengthAdjust="spacing" textLength="98" x="864.5" y="508.878">-buf : uint8_t *</text><text fill="#000000" font-family="sans-serif" font-size="14" lengthAdjust="spacing" textLength="97" x="864.5" y="527.9459">-size : uint32_t</text><text fill="#000000" font-family="sans-serif" font-size="14" lengthAdjust="spacing" textLength="105" x="864.5" y="547.0138">-head : uint32_t</text><text fill="#000000" font-family="sans-serif" font-size="14" lengthAdjust="spacing" textLength="92" x="864.5" y="566.0817">-tail : uint32_t</text><text fill="#000000" font-family="sans-serif" font-size="14" lengthAdjust="spacing" textLength="100" x="864.5" y="585.1496">-tail2 : uint32_t</text><text fill="#000000" font-family="sans-serif" font-size="14" lengthAdjust="spacing" textLength="153" x="864.5" y="604.2176">-put_claimed : uint32_t</text><text fill="#000000" font-family="sans-serif" font-size="14" lengthAdjust="spacing" textLength="152" x="864.5" y="623.2855">-get_claimed : uint32_t</text><text fill="#000000" font-family="sans-serif" font-size="14" lengthAdjust="spacing" textLength="162" x="864.5" y="642.3534">-peek_claimed : uint32_t</text><text fill="#000000" font-family="sans-serif" font-size="14" lengthAdjust="spacing" textLength="155" x="864.5" y="661.4213">-second_enabled : bool</text><text fill="#000000" font-family="sans-serif" font-size="14" lengthAdjust="spacing" textLength="154" x="864.5" y="680.4892">-lock : struct k_spinlock</text></g><!--class LC--><g id="elem_LC"><rect codeLine="18" fill="#F1F1F1" height="110.6158" id="LC" rx="2.5" ry="2.5" style="stroke:#181818;stroke-width:0.5;" width="257" x="7" y="226.28"/><ellipse cx="89.75" cy="248.986" fill="#ADD1B2" rx="11" ry="11" style="stroke:#181818;stroke-width:1.0;"/><path d="M92.7188,254.6266 Q92.1406,254.9235 91.5,255.0641 Q90.8594,255.2204 90.1563,255.2204 Q87.6563,255.2204 86.3281,253.5798 Q85.0156,251.9235 85.0156,248.7985 Q85.0156,245.6735 86.3281,244.0173 Q87.6563,242.361 90.1563,242.361 Q90.8594,242.361 91.5,242.5173 Q92.1563,242.6735 92.7188,242.9704 L92.7188,245.6891 Q92.0938,245.111 91.5,244.8454 Q90.9063,244.5641 90.2813,244.5641 Q88.9375,244.5641 88.25,245.6423 Q87.5625,246.7048 87.5625,248.7985 Q87.5625,250.8923 88.25,251.9704 Q88.9375,253.0329 90.2813,253.0329 Q90.9063,253.0329 91.5,252.7673 Q92.0938,252.486 92.7188,251.9079 L92.7188,254.6266 Z " fill="#000000"/><text fill="#000000" font-family="sans-serif" font-size="12" font-style="italic" lengthAdjust="spacing" textLength="61" x="121.25" y="244.1081">&#171;functions&#187;</text><text fill="#000000" font-family="sans-serif" font-size="14" lengthAdjust="spacing" textLength="83" x="110.25" y="262.59">Lifecycle API</text><line style="stroke:#181818;stroke-width:0.5;" x1="8" x2="263" y1="271.692" y2="271.692"/><text fill="#000000" font-family="sans-serif" font-size="14" lengthAdjust="spacing" textLength="235" x="13" y="290.658">+ring_buf_dp_init(rb, buf, size) : int</text><text fill="#000000" font-family="sans-serif" font-size="14" lengthAdjust="spacing" textLength="192" x="13" y="309.7259">+ring_buf_dp_reset(rb) : void</text><text fill="#000000" font-family="sans-serif" font-size="14" lengthAdjust="spacing" textLength="245" x="13" y="328.7938">+RING_BUF_DP_DECLARE(name, size)</text></g><!--class CP--><g id="elem_CP"><rect codeLine="24" fill="#F1F1F1" height="110.6158" id="CP" rx="2.5" ry="2.5" style="stroke:#181818;stroke-width:0.5;" width="439" x="299" y="226.28"/><ellipse cx="484.75" cy="248.986" fill="#ADD1B2" rx="11" ry="11" style="stroke:#181818;stroke-width:1.0;"/><path d="M487.7188,254.6266 Q487.1406,254.9235 486.5,255.0641 Q485.8594,255.2204 485.1563,255.2204 Q482.6563,255.2204 481.3281,253.5798 Q480.0156,251.9235 480.0156,248.7985 Q480.0156,245.6735 481.3281,244.0173 Q482.6563,242.361 485.1563,242.361 Q485.8594,242.361 486.5,242.5173 Q487.1563,242.6735 487.7188,242.9704 L487.7188,245.6891 Q487.0938,245.111 486.5,244.8454 Q485.9063,244.5641 485.2813,244.5641 Q483.9375,244.5641 483.25,245.6423 Q482.5625,246.7048 482.5625,248.7985 Q482.5625,250.8923 483.25,251.9704 Q483.9375,253.0329 485.2813,253.0329 Q485.9063,253.0329 486.5,252.7673 Q487.0938,252.486 487.7188,251.9079 L487.7188,254.6266 Z " fill="#000000"/><text fill="#000000" font-family="sans-serif" font-size="12" font-style="italic" lengthAdjust="spacing" textLength="61" x="504.25" y="244.1081">&#171;functions&#187;</text><text fill="#000000" font-family="sans-serif" font-size="14" lengthAdjust="spacing" textLength="59" x="505.25" y="262.59">Copy API</text><line style="stroke:#181818;stroke-width:0.5;" x1="300" x2="737" y1="271.692" y2="271.692"/><text fill="#000000" font-family="sans-serif" font-size="14" lengthAdjust="spacing" textLength="274" x="305" y="290.658">+ring_buf_dp_put(rb, data, len) : uint32_t</text><text fill="#000000" font-family="sans-serif" font-size="14" lengthAdjust="spacing" textLength="273" x="305" y="309.7259">+ring_buf_dp_get(rb, data, len) : uint32_t</text><text fill="#000000" font-family="sans-serif" font-size="14" lengthAdjust="spacing" textLength="427" x="305" y="328.7938">+ring_buf_dp_peek(rb, data, len) : uint32_t   // secondary reader</text></g><!--class ZC--><g id="elem_ZC"><rect codeLine="30" fill="#F1F1F1" height="129.6837" id="ZC" rx="2.5" ry="2.5" style="stroke:#181818;stroke-width:0.5;" width="344" x="773.5" y="216.75"/><ellipse cx="839.25" cy="239.456" fill="#ADD1B2" rx="11" ry="11" style="stroke:#181818;stroke-width:1.0;"/><path d="M842.2188,245.0966 Q841.6406,245.3935 841,245.5341 Q840.3594,245.6904 839.6563,245.6904 Q837.1563,245.6904 835.8281,244.0498 Q834.5156,242.3935 834.5156,239.2685 Q834.5156,236.1435 835.8281,234.4873 Q837.1563,232.831 839.6563,232.831 Q840.3594,232.831 841,232.9873 Q841.6563,233.1435 842.2188,233.4404 L842.2188,236.1591 Q841.5938,235.581 841,235.3154 Q840.4063,235.0341 839.7813,235.0341 Q838.4375,235.0341 837.75,236.1123 Q837.0625,237.1748 837.0625,239.2685 Q837.0625,241.3623 837.75,242.4404 Q838.4375,243.5029 839.7813,243.5029 Q840.4063,243.5029 841,243.2373 Q841.5938,242.956 842.2188,242.3779 L842.2188,245.0966 Z " fill="#000000"/><text fill="#000000" font-family="sans-serif" font-size="12" font-style="italic" lengthAdjust="spacing" textLength="61" x="931.25" y="234.5781">&#171;functions&#187;</text><text fill="#000000" font-family="sans-serif" font-size="14" lengthAdjust="spacing" textLength="204" x="859.75" y="253.06">Zero-copy API (double pointer)</text><line style="stroke:#181818;stroke-width:0.5;" x1="774.5" x2="1116.5" y1="262.162" y2="262.162"/><text fill="#000000" font-family="sans-serif" font-size="14" lengthAdjust="spacing" textLength="332" x="779.5" y="281.128">+ring_buf_dp_put_claim(rb, **data, len) : uint32_t</text><text fill="#000000" font-family="sans-serif" font-size="14" lengthAdjust="spacing" textLength="244" x="779.5" y="300.1959">+ring_buf_dp_put_finish(rb, len) : int</text><text fill="#000000" font-family="sans-serif" font-size="14" lengthAdjust="spacing" textLength="331" x="779.5" y="319.2638">+ring_buf_dp_get_claim(rb, **data, len) : uint32_t</text><text fill="#000000" font-family="sans-serif" font-size="14" lengthAdjust="spacing" textLength="243" x="779.5" y="338.3317">+ring_buf_dp_get_finish(rb, len) : int</text></g><!--class SR--><g id="elem_SR"><rect codeLine="37" fill="#F1F1F1" height="129.6837" id="SR" rx="2.5" ry="2.5" style="stroke:#181818;stroke-width:0.5;" width="353" x="1153" y="216.75"/><ellipse cx="1252.75" cy="239.456" fill="#ADD1B2" rx="11" ry="11" style="stroke:#181818;stroke-width:1.0;"/><path d="M1255.7188,245.0966 Q1255.1406,245.3935 1254.5,245.5341 Q1253.8594,245.6904 1253.1563,245.6904 Q1250.6563,245.6904 1249.3281,244.0498 Q1248.0156,242.3935 1248.0156,239.2685 Q1248.0156,236.1435 1249.3281,234.4873 Q1250.6563,232.831 1253.1563,232.831 Q1253.8594,232.831 1254.5,232.9873 Q1255.1563,233.1435 1255.7188,233.4404 L1255.7188,236.1591 Q1255.0938,235.581 1254.5,235.3154 Q1253.9063,235.0341 1253.2813,235.0341 Q1251.9375,235.0341 1251.25,236.1123 Q1250.5625,237.1748 1250.5625,239.2685 Q1250.5625,241.3623 1251.25,242.4404 Q1251.9375,243.5029 1253.2813,243.5029 Q1253.9063,243.5029 1254.5,243.2373 Q1255.0938,242.956 1255.7188,242.3779 L1255.7188,245.0966 Z " fill="#000000"/><text fill="#000000" font-family="sans-serif" font-size="12" font-style="italic" lengthAdjust="spacing" textLength="61" x="1315.25" y="234.5781">&#171;functions&#187;</text><text fill="#000000" font-family="sans-serif" font-size="14" lengthAdjust="spacing" textLength="145" x="1273.25" y="253.06">Secondary reader API</text><line style="stroke:#181818;stroke-width:0.5;" x1="1154" x2="1505" y1="262.162" y2="262.162"/><text fill="#000000" font-family="sans-serif" font-size="14" lengthAdjust="spacing" textLength="248" x="1159" y="281.128">+ring_buf_dp_second_enable(rb) : int</text><text fill="#000000" font-family="sans-serif" font-size="14" lengthAdjust="spacing" textLength="261" x="1159" y="300.1959">+ring_buf_dp_second_disable(rb) : void</text><text fill="#000000" font-family="sans-serif" font-size="14" lengthAdjust="spacing" textLength="341" x="1159" y="319.2638">+ring_buf_dp_peek_claim(rb, **data, len) : uint32_t</text><text fill="#000000" font-family="sans-serif" font-size="14" lengthAdjust="spacing" textLength="253" x="1159" y="338.3317">+ring_buf_dp_peek_finish(rb, len) : int</text></g><!--class ST--><g id="elem_ST"><rect codeLine="44" fill="#F1F1F1" height="167.8195" id="ST" rx="2.5" ry="2.5" style="stroke:#181818;stroke-width:0.5;" width="315" x="1541" y="197.68"/><ellipse cx="1660.25" cy="220.386" fill="#ADD1B2" rx="11" ry="11" style="stroke:#181818;stroke-width:1.0;"/><path d="M1663.2188,226.0266 Q1662.6406,226.3235 1662,226.4641 Q1661.3594,226.6204 1660.6563,226.6204 Q1658.1563,226.6204 1656.8281,224.9798 Q1655.5156,223.3235 1655.5156,220.1985 Q1655.5156,217.0735 1656.8281,215.4173 Q1658.1563,213.761 1660.6563,213.761 Q1661.3594,213.761 1662,213.9173 Q1662.6563,214.0735 1663.2188,214.3704 L1663.2188,217.0891 Q1662.5938,216.511 1662,216.2454 Q1661.4063,215.9641 1660.7813,215.9641 Q1659.4375,215.9641 1658.75,217.0423 Q1658.0625,218.1048 1658.0625,220.1985 Q1658.0625,222.2923 1658.75,223.3704 Q1659.4375,224.4329 1660.7813,224.4329 Q1661.4063,224.4329 1662,224.1673 Q1662.5938,223.886 1663.2188,223.3079 L1663.2188,226.0266 Z " fill="#000000"/><text fill="#000000" font-family="sans-serif" font-size="12" font-style="italic" lengthAdjust="spacing" textLength="61" x="1684.25" y="215.5081">&#171;functions&#187;</text><text fill="#000000" font-family="sans-serif" font-size="14" lengthAdjust="spacing" textLength="68" x="1680.75" y="233.99">Status API</text><line style="stroke:#181818;stroke-width:0.5;" x1="1542" x2="1855" y1="243.092" y2="243.092"/><text fill="#000000" font-family="sans-serif" font-size="14" lengthAdjust="spacing" textLength="238" x="1547" y="262.058">+ring_buf_dp_size_get(rb) : uint32_t</text><text fill="#000000" font-family="sans-serif" font-size="14" lengthAdjust="spacing" textLength="249" x="1547" y="281.1259">+ring_buf_dp_size_used(rb) : uint32_t</text><text fill="#000000" font-family="sans-serif" font-size="14" lengthAdjust="spacing" textLength="303" x="1547" y="300.1938">+ring_buf_dp_second_size_used(rb) : uint32_t</text><text fill="#000000" font-family="sans-serif" font-size="14" lengthAdjust="spacing" textLength="251" x="1547" y="319.2617">+ring_buf_dp_space_get(rb) : uint32_t</text><text fill="#000000" font-family="sans-serif" font-size="14" lengthAdjust="spacing" textLength="218" x="1547" y="338.3296">+ring_buf_dp_is_empty(rb) : bool</text><text fill="#000000" font-family="sans-serif" font-size="14" lengthAdjust="spacing" textLength="198" x="1547" y="357.3976">+ring_buf_dp_is_full(rb) : bool</text></g><!--class SHL--><g id="elem_SHL"><rect codeLine="53" fill="#F1F1F1" height="129.6837" id="SHL" rx="2.5" ry="2.5" style="stroke:#181818;stroke-width:0.5;" width="152" x="1061.5" y="7"/><ellipse cx="1095.4" cy="29.706" fill="#ADD1B2" rx="11" ry="11" style="stroke:#181818;stroke-width:1.0;"/><path d="M1098.3688,35.3466 Q1097.7906,35.6435 1097.15,35.7841 Q1096.5094,35.9404 1095.8063,35.9404 Q1093.3063,35.9404 1091.9781,34.2998 Q1090.6656,32.6435 1090.6656,29.5185 Q1090.6656,26.3935 1091.9781,24.7373 Q1093.3063,23.081 1095.8063,23.081 Q1096.5094,23.081 1097.15,23.2373 Q1097.8063,23.3935 1098.3688,23.6904 L1098.3688,26.4091 Q1097.7438,25.831 1097.15,25.5654 Q1096.5563,25.2841 1095.9313,25.2841 Q1094.5875,25.2841 1093.9,26.3623 Q1093.2125,27.4248 1093.2125,29.5185 Q1093.2125,31.6123 1093.9,32.6904 Q1094.5875,33.7529 1095.9313,33.7529 Q1096.5563,33.7529 1097.15,33.4873 Q1097.7438,33.206 1098.3688,32.6279 L1098.3688,35.3466 Z " fill="#000000"/><text fill="#000000" font-family="sans-serif" font-size="12" font-style="italic" lengthAdjust="spacing" textLength="53" x="1126.1" y="24.8281">&#171;module&#187;</text><text fill="#000000" font-family="sans-serif" font-size="14" lengthAdjust="spacing" textLength="78" x="1113.6" y="43.31">Shell (rbdp)</text><line style="stroke:#181818;stroke-width:0.5;" x1="1062.5" x2="1212.5" y1="52.412" y2="52.412"/><text fill="#000000" font-family="sans-serif" font-size="14" lengthAdjust="spacing" textLength="127" x="1067.5" y="71.378">info, put, get, peek</text><text fill="#000000" font-family="sans-serif" font-size="14" lengthAdjust="spacing" textLength="140" x="1067.5" y="90.4459">claim_put, finish_put</text><text fill="#000000" font-family="sans-serif" font-size="14" lengthAdjust="spacing" textLength="138" x="1067.5" y="109.5138">claim_get, finish_get</text><text fill="#000000" font-family="sans-serif" font-size="14" lengthAdjust="spacing" textLength="34" x="1067.5" y="128.5817">reset</text></g><g id="elem_GMN18"><path d="M1067.5,508.43 L1067.5,562.54 L1032.69,566.54 L1067.5,570.54 L1067.5,624.6661 A0,0 0 0 0 1067.5,624.6661 L1319.5,624.6661 A0,0 0 0 0 1319.5,624.6661 L1319.5,518.43 L1309.5,508.43 L1067.5,508.43 A0,0 0 0 0 1067.5,508.43 " fill="#FEFFDD" style="stroke:#181818;stroke-width:0.5;"/><path d="M1309.5,508.43 L1309.5,518.43 L1319.5,518.43 L1309.5,508.43 " fill="#FEFFDD" style="stroke:#181818;stroke-width:0.5;"/><text fill="#000000" font-family="sans-serif" font-size="13" lengthAdjust="spacing" textLength="142" x="1073.5" y="527.327">Indices live in [0, 2*size).</text><text fill="#000000" font-family="sans-serif" font-size="13" lengthAdjust="spacing" textLength="129" x="1073.5" y="545.033">used  = dist(head, tail)</text><text fill="#000000" font-family="sans-serif" font-size="13" lengthAdjust="spacing" textLength="231" x="1073.5" y="562.739">used2 = dist(head, tail2)  (enabled only)</text><text fill="#000000" font-family="sans-serif" font-size="13" lengthAdjust="spacing" textLength="184" x="1073.5" y="580.4451">space = size - max(used, used2)</text><text fill="#000000" font-family="sans-serif" font-size="13" lengthAdjust="spacing" textLength="198" x="1073.5" y="598.1511">Writable space is bounded by the</text><text fill="#000000" font-family="sans-serif" font-size="13" lengthAdjust="spacing" textLength="141" x="1073.5" y="615.8571">slowest enabled reader.</text></g><!--link LC to ring_buf_dp--><g id="link_LC_ring_buf_dp"><path codeLine="60" d="M224.62,337.36 C243.05,347.49 262.61,357.41 281.5,365.5 C481.13,450.97 723.2513,513.928 852.3213,544.478 " fill="none" id="LC-to-ring_buf_dp" style="stroke:#181818;stroke-width:1.0;stroke-dasharray:7.0,7.0;"/><polygon fill="#181818" points="858.16,545.86,850.3233,539.8946,853.2944,544.7084,848.4807,547.6795,858.16,545.86" style="stroke:#181818;stroke-width:1.0;"/><text fill="#000000" font-family="sans-serif" font-size="13" lengthAdjust="spacing" textLength="90" x="405.91" y="410.397">creates / resets</text></g><!--link CP to ring_buf_dp--><g id="link_CP_ring_buf_dp"><path codeLine="61" d="M601.08,337.31 C674.91,386.23 777.7383,454.3759 853.0183,504.2559 " fill="none" id="CP-to-ring_buf_dp" style="stroke:#181818;stroke-width:1.0;stroke-dasharray:7.0,7.0;"/><polygon fill="#181818" points="858.02,507.57,852.7269,499.2644,853.8519,504.8083,848.3081,505.9333,858.02,507.57" style="stroke:#181818;stroke-width:1.0;"/><text fill="#000000" font-family="sans-serif" font-size="13" lengthAdjust="spacing" textLength="27" x="707.43" y="410.397">uses</text></g><!--link ZC to ring_buf_dp--><g id="link_ZC_ring_buf_dp"><path codeLine="62" d="M945.5,346.8 C945.5,375.66 945.5,404.71 945.5,438.22 " fill="none" id="ZC-to-ring_buf_dp" style="stroke:#181818;stroke-width:1.0;stroke-dasharray:7.0,7.0;"/><polygon fill="#181818" points="945.5,444.22,949.5,435.22,945.5,439.22,941.5,435.22,945.5,444.22" style="stroke:#181818;stroke-width:1.0;"/><text fill="#000000" font-family="sans-serif" font-size="13" lengthAdjust="spacing" textLength="27" x="946.5" y="410.397">uses</text></g><!--link SR to ring_buf_dp--><g id="link_SR_ring_buf_dp"><path codeLine="63" d="M1198.69,346.79 C1149.84,373.7 1095.38,407.38 1050.5,444.5 C1044.5,449.46 1042.8957,450.653 1037.0657,456.203 " fill="none" id="SR-to-ring_buf_dp" style="stroke:#181818;stroke-width:1.0;stroke-dasharray:7.0,7.0;"/><polygon fill="#181818" points="1032.72,460.34,1041.9966,457.0316,1036.3414,456.8925,1036.4806,451.2374,1032.72,460.34" style="stroke:#181818;stroke-width:1.0;"/><text fill="#000000" font-family="sans-serif" font-size="13" lengthAdjust="spacing" textLength="27" x="1115.48" y="410.397">uses</text></g><!--link ST to ring_buf_dp--><g id="link_ST_ring_buf_dp"><path codeLine="64" d="M1540.95,359.63 C1535.1,361.72 1529.27,363.69 1523.5,365.5 C1472.66,381.45 1096.98,418.45 1050.5,444.5 C1044.43,447.9 1043.3541,448.1954 1037.6741,452.4454 " fill="none" id="ST-to-ring_buf_dp" style="stroke:#181818;stroke-width:1.0;stroke-dasharray:7.0,7.0;"/><polygon fill="#181818" points="1032.87,456.04,1042.4725,453.8508,1036.8734,453.0445,1037.6797,447.4454,1032.87,456.04" style="stroke:#181818;stroke-width:1.0;"/><text fill="#000000" font-family="sans-serif" font-size="13" lengthAdjust="spacing" textLength="33" x="1324.44" y="410.397">reads</text></g><!--link SHL to CP--><g id="link_SHL_CP"><path codeLine="65" d="M1061.24,97.25 C984.03,122.08 861.25,161.91 755.5,197.68 C728.97,206.65 706.4975,214.3805 679.2175,223.8605 " fill="none" id="SHL-to-CP" style="stroke:#181818;stroke-width:1.0;stroke-dasharray:7.0,7.0;"/><polygon fill="#181818" points="673.55,225.83,683.3643,226.6541,678.273,224.1887,680.7383,219.0974,673.55,225.83" style="stroke:#181818;stroke-width:1.0;"/></g><!--link SHL to ZC--><g id="link_SHL_ZC"><path codeLine="66" d="M1078.06,137.15 C1054.72,162.41 1032.0535,186.9447 1008.7235,212.1747 " fill="none" id="SHL-to-ZC" style="stroke:#181818;stroke-width:1.0;stroke-dasharray:7.0,7.0;"/><polygon fill="#181818" points="1004.65,216.58,1013.6971,212.6878,1008.0446,212.9089,1007.8234,207.2564,1004.65,216.58" style="stroke:#181818;stroke-width:1.0;"/></g><!--link SHL to SR--><g id="link_SHL_SR"><path codeLine="67" d="M1196.94,137.15 C1220.28,162.41 1242.9465,186.9447 1266.2765,212.1747 " fill="none" id="SHL-to-SR" style="stroke:#181818;stroke-width:1.0;stroke-dasharray:7.0,7.0;"/><polygon fill="#181818" points="1270.35,216.58,1267.1766,207.2564,1266.9554,212.9089,1261.3029,212.6878,1270.35,216.58" style="stroke:#181818;stroke-width:1.0;"/></g><!--link SHL to ST--><g id="link_SHL_ST"><path codeLine="68" d="M1213.97,94.38 C1292.6,117.27 1418.09,155.87 1523.5,197.68 C1529.13,199.91 1529.2844,199.9255 1535.0244,202.3255 " fill="none" id="SHL-to-ST" style="stroke:#181818;stroke-width:1.0;stroke-dasharray:7.0,7.0;"/><polygon fill="#181818" points="1540.56,204.64,1533.7996,197.4778,1535.947,202.7112,1530.7136,204.8586,1540.56,204.64" style="stroke:#181818;stroke-width:1.0;"/></g><!--SRC=[dLLDRzim3BtxLn0z9PcR5jbbABe2dTjj0O8XI3eCo0w6Oj6n45aoBBbTLko_Zv9TDvzBkfl2zqJpFJAKMGfLi9BbO3B6zPDG2qYPD1YO5aaaC-RMsbBCAul3HAkf-8rm6MI28s1Us1NacC-nD47WoL1IddXUfJ4luFhQsB9AxCqDF0S0vq1nk89AAFiXjj3pCUCori7tWzZwM8QCRySi4t9VRB0TB2eRKoqYnvqS2pm85OZBGvX1KivZL6mkFJhNMdf4wcH9lskPi8nD8PIB1NzU_3WRYHIJLI8HRiV3Cs06HX4varOgiK8hqvZpRjsvM2XXE-KyT8w5tg8kVOPgsc6MQD1H7Vwe1VU4oV3Rb_ZJzy_ntJY-kuz6jvFxZc8vDgdMgejqiMeBYyP72oDpVLsSMHQ2HDNTD6kJlS2ti5qB3jC1uEAYQGKhLr3IZ62v9cM6fJvF6ZtGuRgYRa6XwJwMNIzm5fqYi1u3NqclTsBfT2kbffdCNsle-_hLZk2RyhjR-_E_wfzkMTEsTJevgdfZmfjfsbTzm-F2h17RiTjkvlyOwQuTLMgPhSohleVZ-cZicsdyv-SzhpB8Zn9h8qxd5omvgG9XOhzN6rwpQNOuQINbEcNDd0ob1C9uKG_zzEk8_CarhoGsvWYLwj0joj2jnD0lFmhxTiK-NBV0dTkuPpPnEbFSxnxtQTfe_VxDnkw_WeJ6qAA1Yvfd0belkomopmIpw112iti8UTY3kCadY1GxB1gtnrdK7gUJr-D342XjaR8iCWiwNKz70eUAYuGaIF68P1hyl0nXqFCxj4-mQpp0Hw2_W-suDolqBrAtWGQxqA0Bq7bvHxIIAyVriq5S_nAUGyv-TTpri4xY63zAOTsTXYeCDRrId7BCLs0pT4caVa9ZuILvlGFw0IeEJk9V]--></g></svg>