<?xml version="1.0" encoding="us-ascii" standalone="no"?><svg xmlns="http://www.w3.org/2000/svg" xmlns:xlink="http://www.w3.org/1999/xlink" contentStyleType="text/css" height="734px" preserveAspectRatio="none" style="width:664px;height:734px;background:#FFFFFF;" version="1.1" viewBox="0 0 664 734" width="664px" zoomAndPan="magnify"><defs/><g><line style="stroke:#181818;stroke-width:0.5;stroke-dasharray:5.0,5.0;" x1="42" x2="42" y1="58.1358" y2="677.8441"/><line style="stroke:#181818;stroke-width:0.5;stroke-dasharray:5.0,5.0;" x1="131" x2="131" y1="58.1358" y2="677.8441"/><line style="stroke:#181818;stroke-width:0.5;stroke-dasharray:5.0,5.0;" x1="245.5" x2="245.5" y1="58.1358" y2="677.8441"/><line style="stroke:#181818;stroke-width:0.5;stroke-dasharray:5.0,5.0;" x1="399" x2="399" y1="58.1358" y2="677.8441"/><rect fill="#E2E2F0" height="33.0679" rx="2.5" ry="2.5" style="stroke:#181818;stroke-width:0.5;" width="75" x="5" y="24.0679"/><text fill="#000000" font-family="sans-serif" font-size="14" lengthAdjust="spacing" textLength="61" x="12" y="46.0339">Producer</text><rect fill="#E2E2F0" height="33.0679" rx="2.5" ry="2.5" style="stroke:#181818;stroke-width:0.5;" width="75" x="5" y="676.8441"/><text fill="#000000" font-family="sans-serif" font-size="14" lengthAdjust="spacing" textLength="61" x="12" y="698.8101">Producer</text><rect fill="#E2E2F0" height="52.1358" rx="2.5" ry="2.5" style="stroke:#181818;stroke-width:0.5;" width="83" x="90" y="5"/><text fill="#000000" font-family="sans-serif" font-size="14" lengthAdjust="spacing" textLength="52" x="105.5" y="26.9659">Primary</text><text fill="#000000" font-family="sans-serif" font-size="14" lengthAdjust="spacing" textLength="69" x="97" y="46.0339">Consumer</text><rect fill="#E2E2F0" height="52.1358" rx="2.5" ry="2.5" style="stroke:#181818;stroke-width:0.5;" width="83" x="90" y="676.8441"/><text fill="#000000" font-family="sans-serif" font-size="14" lengthAdjust="spacing" textLength="52" x="105.5" y="698.8101">Primary</text><text fill="#000000" font-family="sans-serif" font-size="14" lengthAdjust="spacing" textLength="69" x="97" y="717.878">Consumer</text><rect fill="#E2E2F0" height="52.1358" rx="2.5" ry="2.5" style="stroke:#181818;stroke-width:0.5;" width="84" x="203.5" y="5"/><text fill="#000000" font-family="sans-serif" font-size="14" lengthAdjust="spacing" textLength="70" x="210.5" y="26.9659">Secondary</text><text fill="#000000" font-family="sans-serif" font-size="14" lengthAdjust="spacing" textLength="48" x="221.5" y="46.0339">Reader</text><rect fill="#E2E2F0" height="52.1358" rx="2.5" ry="2.5" style="stroke:#181818;stroke-width:0.5;" width="84" x="203.5" y="676.8441"/><text fill="#000000" font-family="sans-serif" font-size="14" lengthAdjust="spacing" textLength="70" x="210.5" y="698.8101">Secondary</text><text fill="#000000" font-family="sans-serif" font-size="14" lengthAdjust="spacing" textLength="48" x="221.5" y="717.878">Reader</text><rect fill="#E2E2F0" height="33.0679" rx="2.5" ry="2.5" style="stroke:#181818;stroke-width:0.5;" width="95" x="352" y="24.0679"/><text fill="#000000" font-family="sans-serif" font-size="14" lengthAdjust="spacing" textLength="81" x="359" y="46.0339">ring_buf_dp</text><rect fill="#E2E2F0" height="33.0679" rx="2.5" ry="2.5" style="stroke:#181818;stroke-width:0.5;" width="95" x="352" y="676.8441"/><text fill="#000000" font-family="sans-serif" font-size="14" lengthAdjust="spacing" textLength="81" x="359" y="698.8101">ring_buf_dp</text><polygon fill="#181818" points="387.5,87.8419,397.5,91.8419,387.5,95.8419,391.5,91.8419" style="stroke:#181818;stroke-width:1.0;"/><line style="stroke:#181818;stroke-width:1.0;" x1="245.5" x2="393.5" y1="91.8419" y2="91.8419"/><text fill="#000000" font-family="sans-serif" font-size="13" font-weight="bold" lengthAdjust="spacing" textLength="7" x="268.5" y="86.0328">1</text><text fill="#000000" font-family="sans-serif" font-size="13" lengthAdjust="spacing" textLength="97" x="279.5" y="86.0328">second_enable()</text><line style="stroke:#181818;stroke-width:1.0;" x1="399.5" x2="441.5" y1="123.5479" y2="123.5479"/><line style="stroke:#181818;stroke-width:1.0;" x1="441.5" x2="441.5" y1="123.5479" y2="136.5479"/><line style="stroke:#181818;stroke-width:1.0;" x1="400.5" x2="441.5" y1="136.5479" y2="136.5479"/><polygon fill="#181818" points="410.5,132.5479,400.5,136.5479,410.5,140.5479,406.5,136.5479" style="stroke:#181818;stroke-width:1.0;"/><text fill="#000000" font-family="sans-serif" font-size="13" font-weight="bold" lengthAdjust="spacing" textLength="7" x="406.5" y="117.7389">2</text><text fill="#000000" font-family="sans-serif" font-size="13" lengthAdjust="spacing" textLength="56" x="417.5" y="117.7389">tail2 = tail</text><polygon fill="#181818" points="387.5,164.2539,397.5,168.2539,387.5,172.2539,391.5,168.2539" style="stroke:#181818;stroke-width:1.0;"/><line style="stroke:#181818;stroke-width:1.0;" x1="42.5" x2="393.5" y1="168.2539" y2="168.2539"/><text fill="#000000" font-family="sans-serif" font-size="13" font-weight="bold" lengthAdjust="spacing" textLength="7" x="177.5" y="162.4449">3</text><text fill="#000000" font-family="sans-serif" font-size="13" lengthAdjust="spacing" textLength="76" x="188.5" y="162.4449">put(data, 32)</text><polygon fill="#181818" points="53.5,195.9599,43.5,199.9599,53.5,203.9599,49.5,199.9599" style="stroke:#181818;stroke-width:1.0;"/><line style="stroke:#181818;stroke-width:1.0;stroke-dasharray:2.0,2.0;" x1="47.5" x2="398.5" y1="199.9599" y2="199.9599"/><text fill="#000000" font-family="sans-serif" font-size="13" font-weight="bold" lengthAdjust="spacing" textLength="7" x="174.5" y="194.1509">4</text><text fill="#000000" font-family="sans-serif" font-size="13" lengthAdjust="spacing" textLength="82" x="185.5" y="194.1509">32 (head = 32)</text><polygon fill="#181818" points="387.5,227.6659,397.5,231.6659,387.5,235.6659,391.5,231.6659" style="stroke:#181818;stroke-width:1.0;"/><line style="stroke:#181818;stroke-width:1.0;" x1="245.5" x2="393.5" y1="231.6659" y2="231.6659"/><text fill="#000000" font-family="sans-serif" font-size="13" font-weight="bold" lengthAdjust="spacing" textLength="7" x="257.5" y="225.8569">5</text><text fill="#000000" font-family="sans-serif" font-size="13" lengthAdjust="spacing" textLength="119" x="268.5" y="225.8569">peek_claim(&amp;p2, 32)</text><polygon fill="#181818" points="256.5,259.3719,246.5,263.3719,256.5,267.3719,252.5,263.3719" style="stroke:#181818;stroke-width:1.0;"/><line style="stroke:#181818;stroke-width:1.0;stroke-dasharray:2.0,2.0;" x1="250.5" x2="398.5" y1="263.3719" y2="263.3719"/><text fill="#000000" font-family="sans-serif" font-size="13" font-weight="bold" lengthAdjust="spacing" textLength="7" x="259.5" y="257.5629">6</text><text fill="#000000" font-family="sans-serif" font-size="13" lengthAdjust="spacing" textLength="115" x="270.5" y="257.5629">32, p2 -&gt; &amp;buf[tail2]</text><line style="stroke:#181818;stroke-width:1.0;" x1="245.5" x2="287.5" y1="295.0779" y2="295.0779"/><line style="stroke:#181818;stroke-width:1.0;" x1="287.5" x2="287.5" y1="295.0779" y2="308.0779"/><line style="stroke:#181818;stroke-width:1.0;" x1="246.5" x2="287.5" y1="308.0779" y2="308.0779"/><polygon fill="#181818" points="256.5,304.0779,246.5,308.0779,256.5,312.0779,252.5,308.0779" style="stroke:#181818;stroke-width:1.0;"/><text fill="#000000" font-family="sans-serif" font-size="13" font-weight="bold" lengthAdjust="spacing" textLength="7" x="252.5" y="289.2689">7</text><text fill="#000000" font-family="sans-serif" font-size="13" lengthAdjust="spacing" textLength="109" x="263.5" y="289.2689">inspect / log bytes</text><polygon fill="#181818" points="387.5,335.784,397.5,339.784,387.5,343.784,391.5,339.784" style="stroke:#181818;stroke-width:1.0;"/><line style="stroke:#181818;stroke-width:1.0;" x1="245.5" x2="393.5" y1="339.784" y2="339.784"/><text fill="#000000" font-family="sans-serif" font-size="13" font-weight="bold" lengthAdjust="spacing" textLength="7" x="272.5" y="333.975">8</text><text fill="#000000" font-family="sans-serif" font-size="13" lengthAdjust="spacing" textLength="89" x="283.5" y="333.975">peek_finish(32)</text><line style="stroke:#181818;stroke-width:1.0;" x1="399.5" x2="441.5" y1="389.196" y2="389.196"/><line style="stroke:#181818;stroke-width:1.0;" x1="441.5" x2="441.5" y1="389.196" y2="402.196"/><line style="stroke:#181818;stroke-width:1.0;" x1="400.5" x2="441.5" y1="402.196" y2="402.196"/><polygon fill="#181818" points="410.5,398.196,400.5,402.196,410.5,406.196,406.5,402.196" style="stroke:#181818;stroke-width:1.0;"/><text fill="#000000" font-family="sans-serif" font-size="13" font-weight="bold" lengthAdjust="spacing" textLength="7" x="406.5" y="374.534">9</text><text fill="#000000" font-family="sans-serif" font-size="13" lengthAdjust="spacing" textLength="52" x="473" y="365.681">tail2 = 32</text><text fill="#000000" font-family="sans-serif" font-size="13" lengthAdjust="spacing" textLength="163" x="417.5" y="383.387">(space NOT freed, tail still 0)</text><polygon fill="#181818" points="387.5,429.902,397.5,433.902,387.5,437.902,391.5,433.902" style="stroke:#181818;stroke-width:1.0;"/><line style="stroke:#181818;stroke-width:1.0;" x1="131.5" x2="393.5" y1="433.902" y2="433.902"/><text fill="#000000" font-family="sans-serif" font-size="13" font-weight="bold" lengthAdjust="spacing" textLength="14" x="201.5" y="428.093">10</text><text fill="#000000" font-family="sans-serif" font-size="13" lengthAdjust="spacing" textLength="110" x="219.5" y="428.093">get_claim(&amp;p1, 32)</text><polygon fill="#181818" points="142.5,461.608,132.5,465.608,142.5,469.608,138.5,465.608" style="stroke:#181818;stroke-width:1.0;"/><line style="stroke:#181818;stroke-width:1.0;stroke-dasharray:2.0,2.0;" x1="136.5" x2="398.5" y1="465.608" y2="465.608"/><text fill="#000000" font-family="sans-serif" font-size="13" font-weight="bold" lengthAdjust="spacing" textLength="14" x="202.5" y="459.799">11</text><text fill="#000000" font-family="sans-serif" font-size="13" lengthAdjust="spacing" textLength="108" x="220.5" y="459.799">32, p1 -&gt; &amp;buf[tail]</text><line style="stroke:#181818;stroke-width:1.0;" x1="131.5" x2="173.5" y1="497.314" y2="497.314"/><line style="stroke:#181818;stroke-width:1.0;" x1="173.5" x2="173.5" y1="497.314" y2="510.314"/><line style="stroke:#181818;stroke-width:1.0;" x1="132.5" x2="173.5" y1="510.314" y2="510.314"/><polygon fill="#181818" points="142.5,506.314,132.5,510.314,142.5,514.314,138.5,510.314" style="stroke:#181818;stroke-width:1.0;"/><text fill="#000000" font-family="sans-serif" font-size="13" font-weight="bold" lengthAdjust="spacing" textLength="14" x="138.5" y="491.505">12</text><text fill="#000000" font-family="sans-serif" font-size="13" lengthAdjust="spacing" textLength="82" x="156.5" y="491.505">process bytes</text><polygon fill="#181818" points="387.5,538.0201,397.5,542.0201,387.5,546.0201,391.5,542.0201" style="stroke:#181818;stroke-width:1.0;"/><line style="stroke:#181818;stroke-width:1.0;" x1="131.5" x2="393.5" y1="542.0201" y2="542.0201"/><text fill="#000000" font-family="sans-serif" font-size="13" font-weight="bold" lengthAdjust="spacing" textLength="14" x="216.5" y="536.2111">13</text><text fill="#000000" font-family="sans-serif" font-size="13" lengthAdjust="spacing" textLength="80" x="234.5" y="536.2111">get_finish(32)</text><line style="stroke:#181818;stroke-width:1.0;" x1="399.5" x2="441.5" y1="591.4321" y2="591.4321"/><line style="stroke:#181818;stroke-width:1.0;" x1="441.5" x2="441.5" y1="591.4321" y2="604.4321"/><line style="stroke:#181818;stroke-width:1.0;" x1="400.5" x2="441.5" y1="604.4321" y2="604.4321"/><polygon fill="#181818" points="410.5,600.4321,400.5,604.4321,410.5,608.4321,406.5,604.4321" style="stroke:#181818;stroke-width:1.0;"/><text fill="#000000" font-family="sans-serif" font-size="13" font-weight="bold" lengthAdjust="spacing" textLength="14" x="406.5" y="576.7701">14</text><text fill="#000000" font-family="sans-serif" font-size="13" lengthAdjust="spacing" textLength="45" x="518.5" y="567.9171">tail = 32</text><text fill="#000000" font-family="sans-serif" font-size="13" lengthAdjust="spacing" textLength="233" x="424.5" y="585.6231">free space = size - (head - min(tail, tail2))</text><path d="M282,617.4321 L282,662.4321 L516,662.4321 L516,627.4321 L506,617.4321 L282,617.4321 " fill="#FEFFDD" style="stroke:#181818;stroke-width:0.5;"/><path d="M506,617.4321 L506,627.4321 L516,627.4321 L506,617.4321 " fill="#FEFFDD" style="stroke:#181818;stroke-width:0.5;"/><text fill="#000000" font-family="sans-serif" font-size="13" lengthAdjust="spacing" textLength="211" x="288" y="636.3291">Space is reclaimed only when BOTH</text><text fill="#000000" font-family="sans-serif" font-size="13" lengthAdjust="spacing" textLength="213" x="288" y="654.0351">readers have moved past the bytes.</text><!--SRC=[TPB1JkCm54Nt_eeh5YX8BGFfRYH66hgP3L0rx0PKkVPhOf4y6zi1TRv-72ST2DAi4hrxxlDHdF1Ys4alEuH6QljkkCP1je54-4ZejITMT4SXo9f-jgPcAE98NiW-MkwxVNeLYOv66ISvucpZhUuL-JF8WCtNp7JI7vzuRJdqtGIjvr15ohBEs9Qadg1g3ldakzltXvrsETuAKM7v0rjyJzh3WXsntBTKN8ZjAOZIj2LkybE8pMdi-bXe6UK2gpBJQRv9yrM9eaa6gJ447mSuefUTQgNfYdDNVgvLkRQ0AmVsF0d-peS-Z-KXDXmSgOXlQ6sD_J5I-BBvODY4ffYspjLNvHCNmKb5k7zunC4JwKLE4Q9fMrmbqVMfLLFyvtdzsNDzyhoUUJwFrI5rtgfqxPFWREF__2QzmGcZuWs2-KDOJjznYSvmCQ2ZSdcHPDb6WdqZd-uGg7BF17ZAugHXkJtYlI76xSFZhyJu_5S4DFADqAMgXfCX8ZOqwbuAOerXyLy0]--></g></svg>